<mxfile host="app.diagrams.net" modified="2023-11-03T00:07:49.614Z" agent="Mozilla/5.0 (Windows NT 10.0; Win64; x64) AppleWebKit/537.36 (KHTML, like Gecko) Chrome/118.0.0.0 Safari/537.36 Edg/118.0.2088.76" etag="sJ6vAThU_CK-BOOa42az" version="22.0.8" type="google">
  <diagram name="Page-1" id="W27e4sB1eNWfF2mM6yQz">
    <mxGraphModel grid="1" page="1" gridSize="10" guides="1" tooltips="1" connect="1" arrows="1" fold="1" pageScale="1" pageWidth="850" pageHeight="1100" math="0" shadow="0">
      <root>
        <mxCell id="0" />
        <mxCell id="1" parent="0" />
        <mxCell id="0LkjS4K_a60rOrFWtQ0u-1" value="" style="ellipse;whiteSpace=wrap;html=1;aspect=fixed;" vertex="1" parent="1">
          <mxGeometry x="375" y="10" width="590" height="590" as="geometry" />
        </mxCell>
        <mxCell id="0LkjS4K_a60rOrFWtQ0u-2" value="SSU are vulnerable to:&lt;br&gt;-Meteorite Impact&lt;br&gt;-Short Cricut&lt;br&gt;-Aging&lt;br&gt;-Software Failure&lt;br&gt;-Bus voltage reader malfunction&lt;br&gt;-Overheating&lt;br&gt;-Dust" style="text;html=1;strokeColor=none;fillColor=none;align=center;verticalAlign=middle;whiteSpace=wrap;rounded=0;" vertex="1" parent="1">
          <mxGeometry x="190" y="228.5" width="200" height="30" as="geometry" />
        </mxCell>
        <mxCell id="0LkjS4K_a60rOrFWtQ0u-27" value="" style="shape=flexArrow;endArrow=classic;html=1;rounded=0;exitX=0;exitY=0.5;exitDx=0;exitDy=0;width=0.3225806451612903;endSize=1.064804469273743;endWidth=2.980717246350694;strokeColor=#F19C99;entryX=1.02;entryY=0.76;entryDx=0;entryDy=0;entryPerimeter=0;" edge="1" parent="1">
          <mxGeometry width="50" height="50" relative="1" as="geometry">
            <mxPoint x="1740" y="-113" as="sourcePoint" />
            <mxPoint x="1631" y="-120" as="targetPoint" />
          </mxGeometry>
        </mxCell>
        <mxCell id="0LkjS4K_a60rOrFWtQ0u-33" value="&lt;font style=&quot;font-size: 14px;&quot;&gt;F&lt;sub&gt;SSU&lt;/sub&gt;&lt;/font&gt;" style="ellipse;whiteSpace=wrap;html=1;aspect=fixed;fillColor=#A9C4EB;" vertex="1" parent="1">
          <mxGeometry x="685" y="228.5" width="80" height="80" as="geometry" />
        </mxCell>
        <mxCell id="0LkjS4K_a60rOrFWtQ0u-34" value="&lt;font style=&quot;font-size: 14px;&quot;&gt;F&lt;sub&gt;MBSU&lt;/sub&gt;&lt;/font&gt;" style="ellipse;whiteSpace=wrap;html=1;aspect=fixed;fillColor=#A9C4EB;" vertex="1" parent="1">
          <mxGeometry x="870" y="228.5" width="80" height="80" as="geometry" />
        </mxCell>
        <mxCell id="0LkjS4K_a60rOrFWtQ0u-37" value="&lt;font style=&quot;font-size: 14px;&quot;&gt;H&lt;sub&gt;SSU&lt;/sub&gt;&lt;/font&gt;" style="ellipse;whiteSpace=wrap;html=1;aspect=fixed;fillColor=#CCCCCC;" vertex="1" parent="1">
          <mxGeometry x="555" y="217" width="80" height="80" as="geometry" />
        </mxCell>
        <mxCell id="0LkjS4K_a60rOrFWtQ0u-38" value="&lt;font style=&quot;font-size: 14px;&quot;&gt;Aging&lt;/font&gt;" style="ellipse;whiteSpace=wrap;html=1;aspect=fixed;fillColor=#FFFFFF;strokeColor=#F19C99;strokeWidth=2;dashed=1;dashPattern=8 8;" vertex="1" parent="1">
          <mxGeometry x="460" y="247" width="50" height="50" as="geometry" />
        </mxCell>
        <mxCell id="0LkjS4K_a60rOrFWtQ0u-39" value="&lt;font size=&quot;1&quot;&gt;Bad update&lt;/font&gt;&lt;font style=&quot;font-size: 10px;&quot;&gt;&amp;nbsp;&lt;/font&gt;" style="ellipse;whiteSpace=wrap;html=1;aspect=fixed;fillColor=#FFFFFF;strokeColor=#F19C99;strokeWidth=2;dashed=1;dashPattern=8 8;" vertex="1" parent="1">
          <mxGeometry x="540" y="422" width="50" height="50" as="geometry" />
        </mxCell>
        <mxCell id="0LkjS4K_a60rOrFWtQ0u-40" value="&lt;font size=&quot;1&quot;&gt;Eccentric Behavior&amp;nbsp;&lt;/font&gt;" style="ellipse;whiteSpace=wrap;html=1;aspect=fixed;fillColor=#FFFFFF;strokeColor=#F19C99;strokeWidth=2;dashed=1;dashPattern=8 8;" vertex="1" parent="1">
          <mxGeometry x="650" y="460" width="50" height="50" as="geometry" />
        </mxCell>
        <mxCell id="0LkjS4K_a60rOrFWtQ0u-41" value="&lt;font style=&quot;font-size: 10px;&quot;&gt;Meteorite Impact&lt;/font&gt;" style="ellipse;whiteSpace=wrap;html=1;aspect=fixed;fillColor=#FFFFFF;strokeColor=#F19C99;strokeWidth=2;dashed=1;dashPattern=8 8;direction=north;" vertex="1" parent="1">
          <mxGeometry x="520" y="308.5" width="50" height="50" as="geometry" />
        </mxCell>
        <mxCell id="0LkjS4K_a60rOrFWtQ0u-42" value="&lt;font style=&quot;font-size: 14px;&quot;&gt;Overheating&lt;/font&gt;" style="ellipse;whiteSpace=wrap;html=1;aspect=fixed;fillColor=#FFFFFF;strokeColor=#F19C99;strokeWidth=2;dashed=1;dashPattern=8 8;" vertex="1" parent="1">
          <mxGeometry x="480" y="167" width="50" height="50" as="geometry" />
        </mxCell>
        <mxCell id="0LkjS4K_a60rOrFWtQ0u-43" value="&lt;font style=&quot;font-size: 10px;&quot;&gt;Dust&lt;/font&gt;" style="ellipse;whiteSpace=wrap;html=1;aspect=fixed;fillColor=#FFFFFF;strokeColor=#F19C99;strokeWidth=2;dashed=1;dashPattern=8 8;direction=north;" vertex="1" parent="1">
          <mxGeometry x="550" y="129" width="50" height="50" as="geometry" />
        </mxCell>
        <mxCell id="0LkjS4K_a60rOrFWtQ0u-44" value="" style="shape=flexArrow;endArrow=classic;html=1;rounded=0;fillColor=#FFFFFF;width=0.3225806451612903;endSize=1.064804469273743;endWidth=2.980717246350694;strokeColor=#F19C99;" edge="1" parent="1" source="0LkjS4K_a60rOrFWtQ0u-41" target="0LkjS4K_a60rOrFWtQ0u-37">
          <mxGeometry width="50" height="50" relative="1" as="geometry">
            <mxPoint x="993" y="354" as="sourcePoint" />
            <mxPoint x="1012" y="315" as="targetPoint" />
          </mxGeometry>
        </mxCell>
        <mxCell id="0LkjS4K_a60rOrFWtQ0u-45" value="&lt;font style=&quot;font-size: 14px;&quot;&gt;V&lt;sub&gt;MBSU_voltmeter&lt;/sub&gt;&lt;/font&gt;" style="ellipse;whiteSpace=wrap;html=1;aspect=fixed;fillColor=#FFFFFF;strokeColor=#080505;strokeWidth=1;" vertex="1" parent="1">
          <mxGeometry x="790" y="350" width="80" height="80" as="geometry" />
        </mxCell>
        <mxCell id="0LkjS4K_a60rOrFWtQ0u-46" value="" style="endArrow=classic;html=1;rounded=0;" edge="1" parent="1" source="0LkjS4K_a60rOrFWtQ0u-34" target="0LkjS4K_a60rOrFWtQ0u-45">
          <mxGeometry width="50" height="50" relative="1" as="geometry">
            <mxPoint x="720" y="410" as="sourcePoint" />
            <mxPoint x="770" y="360" as="targetPoint" />
          </mxGeometry>
        </mxCell>
        <mxCell id="0LkjS4K_a60rOrFWtQ0u-48" value="" style="shape=flexArrow;endArrow=classic;html=1;rounded=0;width=0.3225806451612903;endSize=1.064804469273743;endWidth=2.980717246350694;strokeColor=#F19C99;" edge="1" parent="1" source="0LkjS4K_a60rOrFWtQ0u-38" target="0LkjS4K_a60rOrFWtQ0u-37">
          <mxGeometry width="50" height="50" relative="1" as="geometry">
            <mxPoint x="1225" y="197" as="sourcePoint" />
            <mxPoint x="1240" y="247" as="targetPoint" />
          </mxGeometry>
        </mxCell>
        <mxCell id="0LkjS4K_a60rOrFWtQ0u-49" value="" style="shape=flexArrow;endArrow=classic;html=1;rounded=0;width=0.3225806451612903;endSize=1.064804469273743;endWidth=2.980717246350694;strokeColor=#F19C99;" edge="1" parent="1" source="0LkjS4K_a60rOrFWtQ0u-42" target="0LkjS4K_a60rOrFWtQ0u-37">
          <mxGeometry width="50" height="50" relative="1" as="geometry">
            <mxPoint x="518" y="137" as="sourcePoint" />
            <mxPoint x="560" y="209" as="targetPoint" />
          </mxGeometry>
        </mxCell>
        <mxCell id="0LkjS4K_a60rOrFWtQ0u-52" value="&lt;span style=&quot;font-size: 14px;&quot;&gt;F&lt;sub&gt;software&lt;/sub&gt;&lt;/span&gt;" style="ellipse;whiteSpace=wrap;html=1;aspect=fixed;fillColor=#A9C4EB;" vertex="1" parent="1">
          <mxGeometry x="630" y="350" width="80" height="80" as="geometry" />
        </mxCell>
        <mxCell id="0LkjS4K_a60rOrFWtQ0u-53" value="" style="shape=flexArrow;endArrow=classic;html=1;rounded=0;width=0.3225806451612903;endSize=1.064804469273743;endWidth=2.980717246350694;strokeColor=#F19C99;" edge="1" parent="1" source="0LkjS4K_a60rOrFWtQ0u-39" target="0LkjS4K_a60rOrFWtQ0u-52">
          <mxGeometry width="50" height="50" relative="1" as="geometry">
            <mxPoint x="1225" y="197" as="sourcePoint" />
            <mxPoint x="1240" y="247" as="targetPoint" />
          </mxGeometry>
        </mxCell>
        <mxCell id="0LkjS4K_a60rOrFWtQ0u-54" value="" style="shape=flexArrow;endArrow=classic;html=1;rounded=0;width=0.3225806451612903;endSize=1.8800000000000001;endWidth=5.341935483870968;strokeColor=#F19C99;" edge="1" parent="1" source="0LkjS4K_a60rOrFWtQ0u-40" target="0LkjS4K_a60rOrFWtQ0u-52">
          <mxGeometry width="50" height="50" relative="1" as="geometry">
            <mxPoint x="418" y="456" as="sourcePoint" />
            <mxPoint x="573" y="392" as="targetPoint" />
          </mxGeometry>
        </mxCell>
        <mxCell id="0LkjS4K_a60rOrFWtQ0u-56" value="" style="endArrow=classic;html=1;rounded=0;" edge="1" parent="1" source="0LkjS4K_a60rOrFWtQ0u-52" target="0LkjS4K_a60rOrFWtQ0u-33">
          <mxGeometry width="50" height="50" relative="1" as="geometry">
            <mxPoint x="796" y="360" as="sourcePoint" />
            <mxPoint x="759" y="310" as="targetPoint" />
          </mxGeometry>
        </mxCell>
        <mxCell id="0LkjS4K_a60rOrFWtQ0u-57" value="" style="endArrow=classic;html=1;rounded=0;" edge="1" parent="1" source="0LkjS4K_a60rOrFWtQ0u-37" target="0LkjS4K_a60rOrFWtQ0u-33">
          <mxGeometry width="50" height="50" relative="1" as="geometry">
            <mxPoint x="649" y="360" as="sourcePoint" />
            <mxPoint x="706" y="306" as="targetPoint" />
          </mxGeometry>
        </mxCell>
        <mxCell id="0LkjS4K_a60rOrFWtQ0u-58" value="&lt;font style=&quot;font-size: 14px;&quot;&gt;Shortcircut&lt;/font&gt;" style="ellipse;whiteSpace=wrap;html=1;aspect=fixed;fillColor=#FFFFFF;strokeColor=#F19C99;strokeWidth=2;dashed=1;dashPattern=8 8;" vertex="1" parent="1">
          <mxGeometry x="630" y="137" width="50" height="50" as="geometry" />
        </mxCell>
        <mxCell id="0LkjS4K_a60rOrFWtQ0u-61" value="" style="shape=flexArrow;endArrow=classic;html=1;rounded=0;width=0.3225806451612903;endSize=1.064804469273743;endWidth=2.980717246350694;strokeColor=#F19C99;" edge="1" parent="1" source="0LkjS4K_a60rOrFWtQ0u-58" target="0LkjS4K_a60rOrFWtQ0u-37">
          <mxGeometry width="50" height="50" relative="1" as="geometry">
            <mxPoint x="605" y="170" as="sourcePoint" />
            <mxPoint x="605" y="212" as="targetPoint" />
          </mxGeometry>
        </mxCell>
        <mxCell id="0LkjS4K_a60rOrFWtQ0u-62" value="" style="shape=flexArrow;endArrow=classic;html=1;rounded=0;width=0.3225806451612903;endSize=1.064804469273743;endWidth=2.980717246350694;strokeColor=#F19C99;" edge="1" parent="1" source="0LkjS4K_a60rOrFWtQ0u-43" target="0LkjS4K_a60rOrFWtQ0u-37">
          <mxGeometry width="50" height="50" relative="1" as="geometry">
            <mxPoint x="605" y="170" as="sourcePoint" />
            <mxPoint x="605" y="227" as="targetPoint" />
          </mxGeometry>
        </mxCell>
        <mxCell id="0LkjS4K_a60rOrFWtQ0u-63" value="" style="endArrow=classic;html=1;rounded=0;" edge="1" parent="1" source="0LkjS4K_a60rOrFWtQ0u-33" target="0LkjS4K_a60rOrFWtQ0u-34">
          <mxGeometry width="50" height="50" relative="1" as="geometry">
            <mxPoint x="820" y="240" as="sourcePoint" />
            <mxPoint x="870" y="190" as="targetPoint" />
          </mxGeometry>
        </mxCell>
        <mxCell id="0LkjS4K_a60rOrFWtQ0u-64" value="&lt;b&gt;&lt;font style=&quot;font-size: 18px;&quot;&gt;Sequential Shunting Unit&lt;/font&gt;&lt;/b&gt;" style="text;html=1;strokeColor=none;fillColor=none;align=center;verticalAlign=middle;whiteSpace=wrap;rounded=0;" vertex="1" parent="1">
          <mxGeometry x="610" y="42" width="130" height="30" as="geometry" />
        </mxCell>
        <mxCell id="0LkjS4K_a60rOrFWtQ0u-66" value="" style="endArrow=classic;html=1;rounded=0;" edge="1" parent="1" source="0LkjS4K_a60rOrFWtQ0u-45" target="0LkjS4K_a60rOrFWtQ0u-52">
          <mxGeometry width="50" height="50" relative="1" as="geometry">
            <mxPoint x="760" y="500" as="sourcePoint" />
            <mxPoint x="810" y="450" as="targetPoint" />
          </mxGeometry>
        </mxCell>
      </root>
    </mxGraphModel>
  </diagram>
</mxfile>
